<svg width="2380" height="500" viewBox="0 0 2380 500" fill="none" xmlns="http://www.w3.org/2000/svg">
<path d="M1939.79 191.973V219.26H2008.73V271.639H1939.79V303.004H2018.13V358.52H1870.22V136.458H2018.13V191.973H1939.79Z" fill="black"/>
<path d="M208.648 136.458V358.52H139.082V136.458H208.648Z" fill="black"/>
<path d="M757.035 191.973V219.26H825.975V271.639H757.035V303.004H835.376V358.52H687.468V136.458H835.376V191.973H757.035Z" fill="black"/>
<path d="M1316.65 191.973V219.26H1385.59V271.639H1316.65V303.004H1394.99V358.52H1247.08V136.458H1394.99V191.973H1316.65Z" fill="black"/>
<path d="M985.085 358.52L943.407 278.853H943.094V358.52H873.527V136.458H976.937C994.904 136.458 1010.26 139.699 1023 146.181C1035.75 152.454 1045.25 161.131 1051.52 172.213C1057.99 183.086 1061.23 195.423 1061.23 209.224C1061.23 224.07 1057.05 237.243 1048.7 248.743C1040.55 260.244 1028.75 268.503 1013.29 273.521L1061.55 358.52H985.085ZM943.094 232.434H970.67C977.355 232.434 982.369 230.97 985.712 228.042C989.054 224.906 990.725 220.097 990.725 213.615C990.725 207.76 988.95 203.16 985.398 199.814C982.056 196.469 977.146 194.796 970.67 194.796H943.094V232.434Z" fill="black"/>
<path d="M1565.61 324.959H1491.66L1480.69 358.52L1407.68 358.52L1488.84 136.458H1569.06L1649.91 358.52L1576.58 358.52L1565.61 324.959ZM1548.69 272.58L1528.64 210.792L1508.58 272.58H1548.69Z" fill="black"/>
<path d="M2142.76 136.458C2165.94 136.458 2186.21 141.162 2203.55 150.572C2221.1 159.981 2234.57 173.05 2243.97 189.777C2253.37 206.505 2258.07 225.533 2258.07 246.861C2258.07 267.98 2253.37 287.008 2243.97 303.945C2234.57 320.882 2221.1 334.264 2203.55 344.092C2186.21 353.71 2165.94 358.52 2142.76 358.52H2050.31V136.458H2142.76ZM2136.49 296.417C2152.16 296.417 2164.59 292.131 2173.78 283.558C2182.97 274.985 2187.57 262.753 2187.57 246.861C2187.57 230.97 2182.97 218.738 2173.78 210.165C2164.59 201.592 2152.16 197.305 2136.49 197.305H2119.88V296.417H2136.49Z" fill="black"/>
<path d="M665.845 136.458V191.659H606.933V358.52H537.366V191.659H479.081V136.458H665.845Z" fill="black"/>
<path d="M1155.19 305.827H1222.25V358.52H1085.62V136.458H1155.19V305.827Z" fill="black"/>
<path d="M1852.42 136.458L1777.84 358.52H1687.9L1613.32 136.458H1687.28L1733.03 289.204L1778.47 136.458H1852.42Z" fill="black"/>
<path d="M351.149 209.688V319.203L390.008 378.122H459.574V136.458H390.008V269.601L351.149 209.688Z" fill="black"/>
<path d="M316.367 397.725H246.8V156.06H316.367V397.725Z" fill="black"/>
</svg>
