<svg width="2380" height="500" viewBox="0 0 2380 500" fill="none" xmlns="http://www.w3.org/2000/svg">
<g clip-path="url(#clip0_126_235)">
<path fill-rule="evenodd" clip-rule="evenodd" d="M2325.17 54.9838H55.0421V445.016H2325.17V54.9838ZM0.10791 0V500H2380.11V0H0.10791Z" fill="white"/>
<path d="M1939.74 191.973V219.26H2008.68V271.639H1939.74V303.004H2018.08V358.52H1870.18V136.457H2018.08V191.973H1939.74Z" fill="white"/>
<path d="M208.601 136.457V358.52H139.034V136.457H208.601Z" fill="white"/>
<path d="M756.987 191.973V219.26H825.927V271.639H756.987V303.004H835.328V358.52H687.42V136.457H835.328V191.973H756.987Z" fill="white"/>
<path d="M1316.6 191.973V219.26H1385.54V271.639H1316.6V303.004H1394.94V358.52H1247.03V136.457H1394.94V191.973H1316.6Z" fill="white"/>
<path d="M985.037 358.52L943.36 278.853H943.047V358.52H873.48V136.457H976.89C994.856 136.457 1010.21 139.699 1022.95 146.181C1035.7 152.453 1045.2 161.131 1051.47 172.213C1057.95 183.086 1061.18 195.423 1061.18 209.224C1061.18 224.07 1057.01 237.243 1048.65 248.743C1040.5 260.243 1028.7 268.503 1013.24 273.521L1061.5 358.52H985.037ZM943.047 232.433H970.623C977.308 232.433 982.322 230.97 985.664 228.042C989.007 224.906 990.678 220.097 990.678 213.615C990.678 207.76 988.902 203.16 985.351 199.814C982.008 196.469 977.099 194.796 970.623 194.796H943.047V232.433Z" fill="white"/>
<path d="M1565.57 324.959H1491.61L1480.65 358.52L1407.63 358.52L1488.79 136.458L1569.01 136.458L1649.86 358.52L1576.53 358.52L1565.57 324.959ZM1548.65 272.58L1528.59 210.792L1508.53 272.58H1548.65Z" fill="white"/>
<path d="M2142.71 136.457C2165.9 136.457 2186.16 141.162 2203.5 150.572C2221.05 159.981 2234.52 173.05 2243.92 189.777C2253.32 206.505 2258.03 225.533 2258.03 246.861C2258.03 267.98 2253.32 287.008 2243.92 303.945C2234.52 320.882 2221.05 334.264 2203.5 344.092C2186.16 353.71 2165.9 358.52 2142.71 358.52H2050.27V136.457H2142.71ZM2136.44 296.417C2152.11 296.417 2164.54 292.131 2173.73 283.558C2182.92 274.985 2187.52 262.753 2187.52 246.861C2187.52 230.97 2182.92 218.738 2173.73 210.165C2164.54 201.592 2152.11 197.305 2136.44 197.305H2119.83V296.417H2136.44Z" fill="white"/>
<path d="M665.798 136.457V191.659H606.886V358.52H537.319V191.659H479.033V136.457H665.798Z" fill="white"/>
<path d="M1155.14 305.827H1222.2V358.52H1085.57V136.457H1155.14V305.827Z" fill="white"/>
<path d="M1852.37 136.457L1777.79 358.52H1687.86L1613.28 136.457H1687.23L1732.98 289.204L1778.42 136.457H1852.37Z" fill="white"/>
<path d="M351.101 209.688V319.203L389.96 378.122H459.527V136.457H389.96V269.601L351.101 209.688Z" fill="white"/>
<path d="M316.32 397.725H246.753V156.06H316.32V397.725Z" fill="white"/>
</g>
<defs>
<clipPath id="clip0_126_235">
<rect width="2380" height="500" fill="white"/>
</clipPath>
</defs>
</svg>
